<svg xmlns="http://www.w3.org/2000/svg" width="24" height="22">
    <path fill="#067490" fill-rule="evenodd" d="M23 18.001c-.726.367-3.635.731-7.111.901A3.996 3.996 0 0 1 12 22a3.997 3.997 0 0 1-3.887-3.091c-3.486-.163-6.393-.526-7.113-.908C.023 17.13 3.046 15.897 4 13c1.974-4.036.821-8.853 4-11 .752-.508 2.017-.802 3.015-.927C11.013 1.047 11 1.026 11 1a1 1 0 0 1 2 0c0 .026-.013.047-.015.073.998.125 2.263.419 3.015.927 3.257 2.201 1.983 6.944 4 11 1.095 3.021 4.002 4.068 3 5.001zm-5.279-5.287c-1.443-3.283-.531-7.123-2.861-8.905C14.117 3.241 12.667 3 12 3c-.667 0-2.117.241-2.86.809-2.273 1.739-1.449 5.638-2.861 8.905-.682 2.345-2.843 3.344-2.145 4.048.515.309 2.593.604 5.087.736C9.516 18.93 10.645 20 12 20c1.357 0 2.488-1.073 2.781-2.508 2.486-.138 4.566-.433 5.085-.73.717-.754-1.363-1.602-2.145-4.048z"/>
</svg>
