<?xml version="1.0" encoding="utf-8"?>
<!-- Generator: Adobe Illustrator 24.2.3, SVG Export Plug-In . SVG Version: 6.00 Build 0)  -->
<svg version="1.1" id="_x31_0" xmlns="http://www.w3.org/2000/svg" xmlns:xlink="http://www.w3.org/1999/xlink" x="0px" y="0px"
	 viewBox="0 0 512 512" style="enable-background:new 0 0 512 512;" xml:space="preserve">
<style type="text/css">
	.st0{fill:#333333;}
</style>
<g>
	<polygon class="st0" points="388,45.7 388,83.1 474.6,83.1 474.6,429 388,429 388,466.4 512,466.4 512,45.7 	"/>
	<rect x="388" y="120.5" class="st0" width="49.1" height="65.4"/>
	<rect x="388" y="223.3" class="st0" width="49.1" height="65.4"/>
	<rect x="388" y="326.1" class="st0" width="49.1" height="65.4"/>
	<path class="st0" d="M365.8,6.7V6.5L0,47.4v417.2l365.8,40.9v-39.1V429v-37.4v-65.4v-37.4v-65.4v-37.4v-65.4V83.1V45.7V10.5V6.7
		C365.8,6.7,365.8,6.7,365.8,6.7z M166.6,213.2L166.6,213.2l0.1,0.1l30.3-51.1l1-1.6l36.4-1.7l12-0.6l6.4-0.2l-16.8,27.8L197,250.3
		l-3.7,6.2l3.7,6.1l38.7,63.6l10.9,17.9l5.9,9.9l-18.1-0.8l-19.6-0.9l-17.8-1l-0.1-0.1l-30.3-51.6l-7.1,11.6l-22.8,37.4l-33.6-1.5
		l-15.7-0.8l53.8-89.8l-36.9-61.6L87,165.7l49.1-2.2l23.5,38.3l4.8,7.8L166.6,213.2z"/>
</g>
</svg>
