<svg id="icons" xmlns="http://www.w3.org/2000/svg" viewBox="0 0 20 20">
  <path d="M12.13,10.74H2.75a.75.75,0,0,1,0-1.5h9.38a.75.75,0,0,1,0,1.5Z" style="fill:#52c4ee"/>
  <path d="M18,16.61a.75.75,0,0,1-1.5,0"/><path d="M17,2H4A1,1,0,0,0,3,3V6.25a.75.75,0,0,0,1.5,0V3.56h12V16.5H4.5V13.75a.75.75,0,0,0-1.5,0H3V17a1,1,0,0,0,1,1H17a1,1,0,0,0,1-1V3A1,1,0,0,0,17,2Z" style="fill:#52c4ee"/>
  <path d="M10.75,13.25a.74.74,0,0,1-.53-.22.75.75,0,0,1,0-1.06l2-2-2-2A.75.75,0,0,1,11.28,7l2.5,2.5a.75.75,0,0,1,0,1.06L11.28,13A.74.74,0,0,1,10.75,13.25Z" style="fill:#52c4ee"/>
</svg>