<!--?xml version="1.0" encoding="utf-8"?-->
<!-- Generator: Adobe Illustrator 19.1.1, SVG Export Plug-In . SVG Version: 6.00 Build 0)  -->
<svg version="1.1" id="_x31_0" xmlns="http://www.w3.org/2000/svg" xmlns:xlink="http://www.w3.org/1999/xlink" x="0px" y="0px" viewBox="0 0 512 512" style="width: 256px; height: 256px; opacity: 1;" xml:space="preserve">
<style type="text/css">
	.st0{fill:#374149;}
</style>
<g>
	<path class="st0" d="M411.342,194.522l38.17-0.316l0.386-0.004l0,0h0.16c-0.16-13.281-3.601-26.799-10.8-39.119
		c-7.281-12.319-17.358-21.917-28.959-28.557c-6.804-3.805-14.093-6.55-21.655-8.226c-0.648-0.156-1.293-0.351-1.941-0.492v0.035
		c-0.055-0.012-0.106-0.027-0.161-0.039v49.439C398.862,171.403,408.381,181.722,411.342,194.522z" style="fill: rgb(75, 75, 75);"></path>
	<path class="st0" d="M449.968,216.607c0.008-0.457,0.09-0.906,0.09-1.366h-0.007c0-0.055,0.007-0.106,0.007-0.161l-39.759,0.321
		c-3.84,11.12-12.636,19.838-23.757,23.518v53.758c8.48-1.602,16.878-4.722,24.718-9.362
		C435.906,268.874,449.609,243.184,449.968,216.607z" style="fill: rgb(75, 75, 75);"></path>
	<polygon class="st0" points="388.042,45.671 388.042,83.095 474.576,83.095 474.576,428.959 388.042,428.959 388.042,466.383 
		512,466.383 512,45.671 	" style="fill: rgb(75, 75, 75);"></polygon>
	<rect x="388.042" y="364.373" class="st0" width="49.114" height="27.166" style="fill: rgb(75, 75, 75);"></rect>
	<polygon class="st0" points="437.156,312.563 388.35,312.563 388.198,312.563 388.198,312.563 388.042,312.563 388.042,339.726 
		437.156,339.726 	" style="fill: rgb(75, 75, 75);"></polygon>
	<path class="st0" d="M365.762,6.689l-0.008,0.004h-0.011v-0.16L0,47.41v417.177l365.742,40.881v-211.59v-54.158v-33.998v-20.8
		v-18.479v-49.838V10.533l0.082-3.84h-0.062V6.689z M207.306,162.158c2.304,0.206,4.558,0.507,6.757,0.914
		c0.27,0.047,0.528,0.118,0.798,0.168c2.117,0.414,4.198,0.894,6.218,1.496c8.98,2.676,16.643,6.777,22.924,12.312
		c6.347,5.601,11.258,12.339,14.698,20.214c3.457,7.918,5.191,16.398,5.191,25.417c0,9.011-1.734,17.608-5.191,25.753
		c-3.441,8.097-8.351,15.155-14.698,21.162c-6.281,5.953-13.944,10.55-22.924,13.804c-8.855,3.207-18.656,4.679-29.354,4.449
		l-37.263-0.793l-0.902-0.023v0.004l-0.16-0.004v67.738l-0.012,5.621l-36.385-3.137V168.634l74.722-6.445
		c5.152-0.446,10.086-0.458,14.82-0.082C206.794,162.126,207.055,162.134,207.306,162.158z" style="fill: rgb(75, 75, 75);"></path>
	<path class="st0" d="M153.398,199.437v53.376l36.306-0.324c9.296-0.086,16.71-2.68,22.174-7.824
		c5.511-5.195,8.289-12.066,8.289-20.57c0-8.503-2.778-15.238-8.289-20.17c-5.465-4.886-12.878-7.05-22.174-6.531L153.398,199.437z" style="fill: rgb(75, 75, 75);"></path>
</g>
</svg>
