<svg xmlns="http://www.w3.org/2000/svg" viewBox="0 0 41.1 50.4"><path d="M10.2 32.5c0-.8-.6-1.3-1.6-1.3-.4 0-.7 0-.9.1V34c.2 0 .4.1.7.1 1.1-.2 1.8-.7 1.8-1.6zm6.3-1.4c-.5 0-.8 0-.9.1v6h.7c1.9 0 3.1-1 3.1-3.2 0-1.9-1.1-2.9-2.9-2.9z"/><path d="M28.3 0H8.1c-3 0-5.4 2.4-5.4 5.4v19.9h-.5c-1.2 0-2.2 1-2.2 2.2v13.1c0 1.2 1 2.2 2.2 2.2h.5v2.4c0 3 2.4 5.4 5.4 5.4h27.6c3 0 5.4-2.4 5.4-5.4V12.7L28.3 0zM5.7 29.8c.6-.1 1.5-.2 2.8-.2 1.3 0 2.2.2 2.8.7.6.5 1 1.2 1 2.1 0 .9-.3 1.6-.8 2.2-.7.7-1.7 1-3 1h-.7v3.3h-2l-.1-9.1zm30 17.4H8.1C7 47.2 6 46.3 6 45.1v-2.4h25.8c1.2 0 2.2-1 2.2-2.2V27.4c0-1.2-1-2.2-2.2-2.2H6V5.4c0-1.1.9-2.1 2.1-2.1h19v7c0 2.1 1.7 3.7 3.7 3.7h6.9l.1 31.1c0 1.1-1 2.1-2.1 2.1zm-22.2-8.5v-8.9c.8-.1 1.7-.2 2.8-.2 1.7 0 2.8.3 3.7 1 .9.7 1.5 1.8 1.5 3.4 0 1.7-.6 2.9-1.5 3.7-1 .8-2.4 1.2-4.2 1.2-1-.1-1.8-.1-2.3-.2zm14.8-5.3v1.7H25v3.7h-2.1v-9.1h5.6v1.7H25v2.1h3.3z"/></svg>